<?xml version="1.0" encoding="UTF-8" standalone="no"?><!DOCTYPE svg PUBLIC "-//W3C//DTD SVG 1.1//EN" "http://www.w3.org/Graphics/SVG/1.1/DTD/svg11.dtd"><svg viewBox="0 0 1668 196" version="1.1" xmlns="http://www.w3.org/2000/svg" xmlns:xlink="http://www.w3.org/1999/xlink" xml:space="preserve" xmlns:serif="http://www.serif.com/" style="fill-rule:evenodd;clip-rule:evenodd;stroke-linejoin:round;stroke-miterlimit:2;"><rect id="Artboard1" x="0" y="0" width="1667.74" height="195.327" style="fill:none;"/><clipPath id="_clip1"><rect x="0" y="0" width="1667.74" height="195.327"/></clipPath><g clip-path="url(#_clip1)"><g><path d="M74.314,0.613l-48.876,-0l0,24.363l-24.438,-0l-0,97.451l24.438,0l0,24.363l24.438,0l0,24.174l24.438,-0l0,24.363l48.877,-0l-0,-24.363l24.438,-0l-0,-24.174l24.176,0l0,-24.363l24.334,0l-0,-97.451l-24.334,-0l0,-24.363l-48.614,-0l-0,24.363l-48.877,-0l0,-24.363Z" style="fill:#c7053d;"/><path d="M316.112,45.968c16.584,-0 29.756,5.604 39.516,16.813c9.76,11.208 14.641,26.37 14.641,45.485l-0,85.236l-50.789,0l0,-78.459c0,-8.341 -2.159,-14.901 -6.478,-19.68c-4.318,-4.779 -10.106,-7.168 -17.361,-7.168c-7.601,-0 -13.561,2.389 -17.879,7.168c-4.319,4.779 -6.479,11.339 -6.479,19.68l0,78.459l-50.788,0l0,-192.889l50.788,-0l0,67.511c4.492,-6.603 10.581,-11.947 18.269,-16.031c7.687,-4.083 16.54,-6.125 26.56,-6.125Z" style="fill:#21130e;fill-rule:nonzero;"/><path d="M537.144,118.692c0,3.997 -0.259,7.994 -0.777,11.991l-96.135,-0c0.518,7.993 2.721,13.945 6.608,17.855c3.886,3.91 8.853,5.865 14.899,5.865c8.465,-0 14.511,-3.823 18.139,-11.469l54.157,-0c-2.246,10.079 -6.608,19.072 -13.086,26.978c-6.478,7.907 -14.641,14.119 -24.487,18.638c-9.847,4.518 -20.73,6.777 -32.65,6.777c-14.338,-0 -27.078,-3.041 -38.221,-9.123c-11.142,-6.082 -19.866,-14.771 -26.171,-26.066c-6.305,-11.296 -9.458,-24.59 -9.458,-39.882c-0,-15.292 3.109,-28.542 9.328,-39.751c6.219,-11.208 14.9,-19.853 26.042,-25.935c11.143,-6.082 23.969,-9.123 38.48,-9.123c14.338,-0 27.035,2.954 38.091,8.862c11.056,5.908 19.694,14.38 25.913,25.415c6.219,11.034 9.328,24.024 9.328,38.968Zm-51.825,-12.772c0,-6.256 -2.073,-11.165 -6.219,-14.727c-4.146,-3.563 -9.328,-5.344 -15.547,-5.344c-6.219,0 -11.315,1.694 -15.288,5.083c-3.974,3.389 -6.565,8.385 -7.774,14.988l44.828,-0Z" style="fill:#21130e;fill-rule:nonzero;"/><rect x="557.874" y="0.613" width="50.788" height="192.889" style="fill:#21130e;fill-rule:nonzero;"/><rect x="637.684" y="0.613" width="50.788" height="192.889" style="fill:#21130e;fill-rule:nonzero;"/><path d="M785.125,195.327c-14.511,-0 -27.51,-3.041 -38.998,-9.123c-11.488,-6.082 -20.514,-14.771 -27.078,-26.066c-6.565,-11.296 -9.847,-24.59 -9.847,-39.882c-0,-15.118 3.325,-28.325 9.976,-39.62c6.651,-11.296 15.72,-19.984 27.208,-26.066c11.488,-6.082 24.487,-9.123 38.998,-9.123c14.511,-0 27.511,3.041 38.998,9.123c11.488,6.082 20.557,14.77 27.208,26.066c6.651,11.295 9.977,24.502 9.977,39.62c-0,15.119 -3.326,28.369 -9.977,39.751c-6.651,11.382 -15.763,20.115 -27.337,26.197c-11.574,6.082 -24.617,9.123 -39.128,9.123Zm0,-44.313c7.083,0 12.999,-2.65 17.75,-7.95c4.751,-5.3 7.126,-12.903 7.126,-22.808c-0,-9.905 -2.375,-17.464 -7.126,-22.677c-4.751,-5.213 -10.581,-7.82 -17.491,-7.82c-6.91,-0 -12.697,2.607 -17.361,7.82c-4.664,5.213 -6.996,12.772 -6.996,22.677c-0,10.079 2.245,17.725 6.737,22.939c4.491,5.213 10.278,7.819 17.361,7.819Z" style="fill:#21130e;fill-rule:nonzero;"/><path d="M1146.6,47.271l-37.054,146.231l-57.008,0l-20.211,-88.625l-20.989,88.625l-56.748,0l-36.796,-146.231l50.529,0l16.325,96.966l21.507,-96.966l54.416,0l22.285,97.227l16.066,-97.227l47.678,0Z" style="fill:#21130e;fill-rule:nonzero;"/><path d="M1228.74,195.327c-14.511,-0 -27.51,-3.041 -38.998,-9.123c-11.488,-6.082 -20.514,-14.771 -27.078,-26.066c-6.565,-11.296 -9.847,-24.59 -9.847,-39.882c0,-15.118 3.326,-28.325 9.976,-39.62c6.651,-11.296 15.721,-19.984 27.208,-26.066c11.488,-6.082 24.488,-9.123 38.998,-9.123c14.511,-0 27.511,3.041 38.999,9.123c11.487,6.082 20.557,14.77 27.208,26.066c6.65,11.295 9.976,24.502 9.976,39.62c-0,15.119 -3.326,28.369 -9.976,39.751c-6.651,11.382 -15.764,20.115 -27.338,26.197c-11.574,6.082 -24.617,9.123 -39.128,9.123Zm0,-44.313c7.083,0 13,-2.65 17.75,-7.95c4.751,-5.3 7.126,-12.903 7.126,-22.808c0,-9.905 -2.375,-17.464 -7.126,-22.677c-4.75,-5.213 -10.581,-7.82 -17.491,-7.82c-6.909,-0 -12.697,2.607 -17.361,7.82c-4.664,5.213 -6.996,12.772 -6.996,22.677c-0,10.079 2.246,17.725 6.737,22.939c4.492,5.213 10.279,7.819 17.361,7.819Z" style="fill:#21130e;fill-rule:nonzero;"/><path d="M1376.7,73.077c5.701,-8.342 12.61,-14.945 20.73,-19.811c8.119,-4.865 16.843,-7.298 26.171,-7.298l0,54.478l-14.252,0c-11.056,0 -19.261,2.172 -24.616,6.517c-5.356,4.344 -8.033,11.903 -8.033,22.677l-0,63.862l-50.788,0l-0,-146.231l50.788,0l-0,25.806Z" style="fill:#21130e;fill-rule:nonzero;"/><rect x="1441.74" y="0.613" width="50.788" height="192.889" style="fill:#21130e;fill-rule:nonzero;"/><path d="M1513.26,120.256c-0,-15.118 2.721,-28.325 8.162,-39.62c5.442,-11.296 12.913,-19.984 22.414,-26.066c9.502,-6.082 20.039,-9.123 31.613,-9.123c9.329,-0 17.664,1.954 25.006,5.864c7.342,3.91 13.086,9.254 17.232,16.031l-0,-66.729l51.047,-0l-0,192.889l-51.047,0l-0,-20.331c-3.974,6.777 -9.588,12.164 -16.843,16.161c-7.256,3.996 -15.807,5.995 -25.654,5.995c-11.574,-0 -22.068,-3.041 -31.483,-9.123c-9.415,-6.082 -16.843,-14.815 -22.285,-26.197c-5.441,-11.382 -8.162,-24.632 -8.162,-39.751Zm104.686,0c-0,-9.383 -2.548,-16.769 -7.644,-22.156c-5.097,-5.387 -11.359,-8.08 -18.787,-8.08c-7.601,-0 -13.906,2.65 -18.916,7.95c-5.01,5.3 -7.514,12.729 -7.514,22.286c-0,9.384 2.504,16.813 7.514,22.287c5.01,5.474 11.315,8.211 18.916,8.211c7.428,-0 13.69,-2.694 18.787,-8.081c5.096,-5.387 7.644,-12.859 7.644,-22.417Z" style="fill:#21130e;fill-rule:nonzero;"/></g></g></svg>